<svg width="22" height="23" viewBox="0 0 22 23" fill="none" xmlns="http://www.w3.org/2000/svg">
<path opacity="0.3" d="M21.0243 13.2218C22.3634 11.0486 21.0315 9.02077 18.8434 7.12354L20.9867 4.31775L19.177 2.99776L17.0904 5.72974C16.6147 5.3826 16.1217 5.03677 15.6316 4.69334L17.7326 1.94355L15.9242 0.624078L13.7809 3.42865C13.3835 3.15045 12.9933 2.87663 12.6181 2.60313L12.6246 2.5942L10.1297 0.772468L8.73677 2.59692C8.73677 2.59692 10.0913 3.54786 10.0514 3.55477C10.7841 4.08961 10.7159 4.6654 10.5207 5.06266L8.07912 8.25916C8.12948 8.29623 8.19394 8.34633 8.26127 8.4107C8.20087 8.36671 8.13678 8.31947 8.06983 8.27154L4.64878 12.7491C4.45046 12.9433 4.04963 13.1917 3.53694 12.8188C3.54541 12.8551 2.22189 11.8589 2.22189 11.8589L0.304196 13.6362L2.65903 15.3542C3.09682 15.6745 3.52259 15.9961 3.94416 16.3074L1.77725 19.1458L3.58456 20.4648L5.72924 17.6569C6.21815 18.0288 6.69548 18.3828 7.16477 18.7247L5.02909 21.5189L6.83882 22.8389L9.00314 20.0065C12.1711 22.0614 14.8526 22.8915 17.1767 20.3879C19.0486 18.3725 18.7066 16.6143 17.2789 14.963C18.7133 15.2242 20.0478 14.8144 21.0249 13.2223L21.0245 13.2216L21.0243 13.2218ZM13.8577 17.4425C12.2387 19.5639 8.57593 16.5158 7.34878 15.6221L10.2214 11.8625C11.4477 12.7579 15.5475 15.2306 13.8578 17.4425L13.8577 17.4425ZM17.0683 11.5237C15.594 13.4526 12.5576 10.8866 11.5361 10.1414L14.141 6.73156C15.1625 7.47679 18.6052 9.51134 17.0684 11.5238L17.0683 11.5237Z" fill="#F49F1C"/>
</svg>
